<?xml version="1.0" encoding="UTF-8"?>
<svg width="200px" height="60px" viewBox="0 0 200 60" version="1.1" xmlns="http://www.w3.org/2000/svg" xmlns:xlink="http://www.w3.org/1999/xlink">
    <title>Vitals AI Logo White</title>
    <g id="Logo" stroke="none" stroke-width="1" fill="none" fill-rule="evenodd">
        <g id="Vitals-AI-Logo-White" fill="#FFFFFF">
            <!-- Gear/Flower Icon -->
            <path d="M30,10 C18.954,10 10,18.954 10,30 C10,41.046 18.954,50 30,50 C41.046,50 50,41.046 50,30 C50,18.954 41.046,10 30,10 Z M30,15 C38.284,15 45,21.716 45,30 C45,38.284 38.284,45 30,45 C21.716,45 15,38.284 15,30 C15,21.716 21.716,15 30,15 Z" id="Circle" fill-rule="nonzero"></path>
            <path d="M30,15 C26,15 22.5,16.5 20,19 C17.5,21.5 16,25 16,29 C16,33 17.5,36.5 20,39 C22.5,41.5 26,43 30,43 C34,43 37.5,41.5 40,39 C42.5,36.5 44,33 44,29 C44,25 42.5,21.5 40,19 C37.5,16.5 34,15 30,15 Z M30,17 C33.5,17 36.5,18.5 38.5,20.5 C40.5,22.5 42,25.5 42,29 C42,32.5 40.5,35.5 38.5,37.5 C36.5,39.5 33.5,41 30,41 C26.5,41 23.5,39.5 21.5,37.5 C19.5,35.5 18,32.5 18,29 C18,25.5 19.5,22.5 21.5,20.5 C23.5,18.5 26.5,17 30,17 Z" id="InnerCircle" fill-rule="nonzero"></path>
            <circle id="Center" cx="30" cy="30" r="5"></circle>
            <path d="M30,20 L33,27 L27,27 Z" id="PetalTop"></path>
            <path d="M40,30 L33,33 L33,27 Z" id="PetalRight"></path>
            <path d="M30,40 L27,33 L33,33 Z" id="PetalBottom"></path>
            <path d="M20,30 L27,27 L27,33 Z" id="PetalLeft"></path>
            <path d="M36,24 L36,30 L30,24 Z" id="PetalTopRight"></path>
            <path d="M36,36 L30,36 L36,30 Z" id="PetalBottomRight"></path>
            <path d="M24,36 L24,30 L30,36 Z" id="PetalBottomLeft"></path>
            <path d="M24,24 L30,24 L24,30 Z" id="PetalTopLeft"></path>
            
            <!-- Text - Vitals AI -->
            <path d="M65,20 L69,40 L73,40 L75,25 L77,40 L81,40 L85,20 L81,20 L79,35 L77,20 L73,20 L71,35 L69,20 Z" id="V"></path>
            <path d="M87,20 L87,22 L90,22 L90,38 L87,38 L87,40 L97,40 L97,38 L94,38 L94,22 L97,22 L97,20 Z" id="I"></path>
            <path d="M99,20 L99,40 L103,40 L103,32 L105,32 C108,32 110,30 110,26 C110,22 108,20 105,20 Z M103,22 L105,22 C106,22 106.5,22.5 106.5,24 L106.5,28 C106.5,29.5 106,30 105,30 L103,30 Z" id="T"></path>
            <path d="M114,20 L114,22 L117,22 L117,38 L114,38 L114,40 L124,40 L124,38 L121,38 L121,32 L126,32 L126,30 L121,30 L121,22 L124,22 L124,20 Z" id="A"></path>
            <path d="M128,20 L128,40 L132,40 L132,20 Z" id="L"></path>
            <path d="M140,22 C137,22 135,24 135,26 L135,34 C135,36 137,38 140,38 C143,38 145,36 145,34 L145,26 C145,24 143,22 140,22 Z M140,24 C141,24 142,24.5 142,26 L142,34 C142,35.5 141,36 140,36 C139,36 138,35.5 138,34 L138,26 C138,24.5 139,24 140,24 Z" id="S"></path>
            
            <!-- Advisor Intelligence Text -->
            <path d="M70,43 L70,48 L71,48 L71,45.5 L72.5,45.5 C73.5,45.5 74,45 74,44 C74,43 73.5,42.5 72.5,42.5 L71,42.5 Z M71,43.5 L72,43.5 C72.5,43.5 73,43.5 73,44 C73,44.5 72.5,44.5 72,44.5 L71,44.5 Z" id="A-small"></path>
            <path d="M76,43 L75,48 L76,48 L76.2,47 L77.8,47 L78,48 L79,48 L78,43 Z M76.5,46 L77,44 L77.5,46 Z" id="d"></path>
            <path d="M81,43 L81,44 L82,44 L82,47 L81,47 L81,48 L84,48 L84,47 L83,47 L83,44 L84,44 L84,43 Z" id="v"></path>
            <path d="M85,43 L85,48 L86,48 L86,43 Z" id="i"></path>
            <path d="M87,43 L87,44 L88,44 L88,47 L87,47 L87,48 L89,48 C90,48 91,47.5 91,46.5 L91,44.5 C91,43.5 90,43 89,43 Z M88,44 L89,44 C89.5,44 90,44 90,44.5 L90,46.5 C90,47 89.5,47 89,47 L88,47 Z" id="s"></path>
            <path d="M93,43 L92,48 L93,48 L93.5,45.5 L94.5,48 L95.5,48 L96.5,45.5 L97,48 L98,48 L97,43 L96,43 L94.9,46 L94,43 Z" id="o"></path>
            <path d="M100,43 L100,48 L101,48 L101,46 L102,46 L103,48 L104,48 L103,46 C103.5,45.8 104,45.5 104,44.5 C104,43.5 103.5,43 102.5,43 Z M101,44 L102,44 C102.5,44 103,44 103,44.5 C103,45 102.5,45 102,45 L101,45 Z" id="r"></path>
            
            <path d="M110,43 L110,48 L111,48 L111,43 Z" id="I-small"></path>
            <path d="M113,43 L113,48 L114,48 L114,46 L115,46 L115,45 L114,45 L114,44 L115.5,44 L115.5,43 Z" id="n"></path>
            <path d="M117,43 L117,48 L118,48 L118,44 L120,48 L121,48 L121,43 L120,43 L120,47 L118,43 Z" id="t"></path>
            <path d="M123,43 L123,44 L124,44 L124,47 L123,47 L123,48 L126,48 L126,47 L125,47 L125,44 L126,44 L126,43 Z" id="e"></path>
            <path d="M128,43 L128,48 L129,48 L129,43 Z" id="l"></path>
            <path d="M131,43 L131,48 L132,48 L132,43 Z" id="l-2"></path>
            <path d="M133,43 L133,48 L134,48 L134,43 Z" id="l-3"></path>
            <path d="M135,43 L135,48 L136,48 L136,43 Z" id="i-2"></path>
            <path d="M138,43 L138,48 L142,48 L142,47 L139,47 L139,46 L141,46 L141,45 L139,45 L139,44 L142,44 L142,43 Z" id="g"></path>
            <path d="M144,43 L144,44 L145,44 L145,47 L144,47 L144,48 L146,48 C147,48 148,47.5 148,46.5 L148,44.5 C148,43.5 147,43 146,43 Z M145,44 L146,44 C146.5,44 147,44 147,44.5 L147,46.5 C147,47 146.5,47 146,47 L145,47 Z" id="e-2"></path>
            <path d="M150,43 L150,48 L151,48 L151,46 L152,46 L153,48 L154,48 L153,46 C153.5,45.8 154,45.5 154,44.5 C154,43.5 153.5,43 152.5,43 Z M151,44 L152,44 C152.5,44 153,44 153,44.5 C153,45 152.5,45 152,45 L151,45 Z" id="n-2"></path>
            <path d="M156,43 L156,47 L157,47 L158,44 L159,47 L160,47 L160,43 L159,43 L159,45.5 L158.5,44 L157.5,44 L157,45.5 L157,43 Z" id="c"></path>
            <path d="M162,43 L162,44 L163,44 L163,47 L162,47 L162,48 L165,48 L165,47 L164,47 L164,44 L165,44 L165,43 Z" id="e-3"></path>
        </g>
    </g>
</svg>